<svg id="レイヤー_1" data-name="レイヤー 1" xmlns="http://www.w3.org/2000/svg" viewBox="0 0 600 600"><defs><style>.cls-1,.cls-2{fill:#9770d6;}.cls-1{fill-rule:evenodd;}</style></defs><path class="cls-1" d="M300,105.5c-87.4,0-158.5,71.1-158.5,158.5S212.6,422.5,300,422.5,458.5,351.4,458.5,264,387.4,105.5,300,105.5Zm-62.14,19.23v14.15a21.42,21.42,0,0,1-3.63,2.32,1,1,0,0,1-1.14,0,22.51,22.51,0,0,0-6.09-3s-4.3-1.21-6.14,1.06a4.2,4.2,0,0,0-.54,3.13s.06.54-.37.68a3.93,3.93,0,0,0-2.39,4,4.14,4.14,0,0,0,4.14,2.82,1,1,0,0,1,1.05.47s1.65,2.5,4,2.57a4.44,4.44,0,0,0,3.57-2.08,25.62,25.62,0,0,0,3.22-6.58,1.62,1.62,0,0,1,.7-1s1.64-.86,2.76-1.61c0,0,.6-.43.87.71v13.47a22,22,0,0,1-3.63,2.33,1,1,0,0,1-1.14,0,22.63,22.63,0,0,0-6.09-3s-4.3-1.22-6.14,1.06a4.2,4.2,0,0,0-.54,3.13s.06.54-.37.67a3.93,3.93,0,0,0-2.39,4,4.16,4.16,0,0,0,4.14,2.83,1,1,0,0,1,1.05.47s1.65,2.49,4,2.56a4.44,4.44,0,0,0,3.57-2.07,25.8,25.8,0,0,0,3.22-6.59,1.59,1.59,0,0,1,.7-1s1.64-.87,2.76-1.62c0,0,.6-.42.87.71v13.13a22,22,0,0,1-3.63,2.33,1,1,0,0,1-1.14,0,22.63,22.63,0,0,0-6.09-3s-4.3-1.22-6.14,1.06a4.2,4.2,0,0,0-.54,3.13s.06.54-.37.67a3.93,3.93,0,0,0-2.39,4,4.15,4.15,0,0,0,4.14,2.83,1,1,0,0,1,1.05.47s1.65,2.49,4,2.57a4.44,4.44,0,0,0,3.57-2.08,25.8,25.8,0,0,0,3.22-6.59,1.62,1.62,0,0,1,.7-1s1.64-.87,2.76-1.61c0,0,.6-.43.87.7v12.85a20.75,20.75,0,0,1-3.63,2.33,1,1,0,0,1-1.14,0,22.63,22.63,0,0,0-6.09-3s-4.3-1.21-6.14,1.06a4.2,4.2,0,0,0-.54,3.13s.06.54-.37.68a3.93,3.93,0,0,0-2.39,4A4.14,4.14,0,0,0,221.7,200a1,1,0,0,1,1.05.47s1.65,2.5,4,2.57a4.44,4.44,0,0,0,3.57-2.08,25.58,25.58,0,0,0,3.22-6.59,1.62,1.62,0,0,1,.7-1s1.64-.86,2.76-1.61c0,0,.6-.43.87.71v13a21.42,21.42,0,0,1-3.63,2.32,1,1,0,0,1-1.14,0,25.23,25.23,0,0,0-6.35-3.12s-4-1.11-5.88,1.16a4.2,4.2,0,0,0-.54,3.13s.06.54-.37.68a3.93,3.93,0,0,0-2.39,4,4.14,4.14,0,0,0,4.14,2.82,1,1,0,0,1,1.05.47s1.65,2.5,4,2.57a4.14,4.14,0,0,0,3.36-1.87,20.72,20.72,0,0,0,3.43-6.65,1.62,1.62,0,0,1,.7-1s1.64-.86,2.76-1.61c0,0,.6-.51.87.59v13.84a8.67,8.67,0,0,1-2.74,1.89,1.23,1.23,0,0,1-1.35-.07,18.9,18.9,0,0,0-6.12-2.73s-3.19-.78-4.58.77a4,4,0,0,0-.58,2.78.88.88,0,0,1-.44,1s-2.76,1.22-2,3.92c0,0,.55,2.38,3.83,2.2,0,0,.48-.21.77.44,0,0,1.63,2.55,4.11,2.24,0,0,1.67-.07,3-2.33a18.73,18.73,0,0,0,2.55-5.44,1.54,1.54,0,0,1,.93-1,10,10,0,0,1,1.87-1s.58-.38.73,1v9.73a.83.83,0,0,1-.67.86,18.4,18.4,0,0,0-5.43,1.93s-3.61,1.7-3.51,5.23c0,0-.08,3.87,5.21,5.83a1.12,1.12,0,0,1,.87,1,6.44,6.44,0,0,0,1.24,3,4,4,0,0,0,6.31,0,6.51,6.51,0,0,0,1.25-3,1.1,1.1,0,0,1,.86-1c5.3-2,5.21-5.83,5.21-5.83.11-3.53-3.51-5.23-3.51-5.23a18.29,18.29,0,0,0-5.42-1.93.84.84,0,0,1-.68-.86v-9.73c.16-1.4.74-1,.74-1a10.06,10.06,0,0,1,1.86,1,1.58,1.58,0,0,1,.94,1,18.93,18.93,0,0,0,2.54,5.44c1.36,2.26,3,2.33,3,2.33,2.48.31,4.11-2.24,4.11-2.24.28-.65.77-.44.77-.44,3.28.18,3.83-2.2,3.83-2.2.75-2.7-2-3.92-2-3.92a.86.86,0,0,1-.44-1,4,4,0,0,0-.59-2.78c-1.38-1.55-4.57-.77-4.57-.77a18.9,18.9,0,0,0-6.12,2.73,1.24,1.24,0,0,1-1.36.07,8.94,8.94,0,0,1-2.74-1.89V209c.28-1.1.88-.59.88-.59,1.12.75,2.75,1.61,2.75,1.61a1.62,1.62,0,0,1,.7,1,21,21,0,0,0,3.43,6.65,4.15,4.15,0,0,0,3.37,1.87c2.33-.07,4-2.57,4-2.57a1,1,0,0,1,1-.47,4.12,4.12,0,0,0,4.13-2.82,3.91,3.91,0,0,0-2.38-4c-.43-.14-.37-.68-.37-.68a4.2,4.2,0,0,0-.54-3.13c-1.85-2.27-5.88-1.16-5.88-1.16a25.23,25.23,0,0,0-6.35,3.12,1,1,0,0,1-1.15,0,21.42,21.42,0,0,1-3.63-2.32v-13c.28-1.14.88-.71.88-.71,1.12.75,2.75,1.61,2.75,1.61a1.62,1.62,0,0,1,.7,1,26,26,0,0,0,3.22,6.59,4.46,4.46,0,0,0,3.58,2.08c2.33-.07,4-2.57,4-2.57a1,1,0,0,1,1-.47,4.12,4.12,0,0,0,4.13-2.82,3.91,3.91,0,0,0-2.38-4c-.43-.14-.37-.68-.37-.68a4.2,4.2,0,0,0-.54-3.13c-1.85-2.27-6.15-1.06-6.15-1.06a22.67,22.67,0,0,0-6.08,3,1,1,0,0,1-1.15,0,20.75,20.75,0,0,1-3.63-2.33v-1.53h0V176c.28-1.13.88-.7.88-.7,1.12.74,2.75,1.61,2.75,1.61a1.62,1.62,0,0,1,.7,1,26.18,26.18,0,0,0,3.22,6.59,4.46,4.46,0,0,0,3.58,2.08c2.33-.08,4-2.57,4-2.57a1,1,0,0,1,1-.47,4.13,4.13,0,0,0,4.13-2.83,3.91,3.91,0,0,0-2.38-4c-.43-.13-.37-.67-.37-.67a4.2,4.2,0,0,0-.54-3.13c-1.85-2.28-6.15-1.06-6.15-1.06a22.67,22.67,0,0,0-6.08,3,1,1,0,0,1-1.15,0,22,22,0,0,1-3.63-2.33V159.39c.28-1.13.88-.71.88-.71,1.12.75,2.75,1.62,2.75,1.62a1.59,1.59,0,0,1,.7,1,26.18,26.18,0,0,0,3.22,6.59,4.47,4.47,0,0,0,3.58,2.07c2.33-.07,4-2.56,4-2.56a1,1,0,0,1,1-.47,4.14,4.14,0,0,0,4.13-2.83,3.91,3.91,0,0,0-2.38-4c-.43-.13-.37-.67-.37-.67a4.2,4.2,0,0,0-.54-3.13c-1.85-2.28-6.15-1.06-6.15-1.06a22.67,22.67,0,0,0-6.08,3,1,1,0,0,1-1.15,0,22,22,0,0,1-3.63-2.33V142.4c.28-1.14.88-.71.88-.71,1.12.75,2.75,1.61,2.75,1.61a1.62,1.62,0,0,1,.7,1,26,26,0,0,0,3.22,6.58,4.46,4.46,0,0,0,3.58,2.08c2.33-.07,4-2.57,4-2.57a1,1,0,0,1,1-.47,4.12,4.12,0,0,0,4.13-2.82,3.91,3.91,0,0,0-2.38-4c-.43-.14-.37-.68-.37-.68a4.2,4.2,0,0,0-.54-3.13c-1.85-2.27-6.15-1.06-6.15-1.06a22.55,22.55,0,0,0-6.08,3,1,1,0,0,1-1.15,0,21.42,21.42,0,0,1-3.63-2.32V124a151.64,151.64,0,0,1,59.54-12.48v14.43a21.68,21.68,0,0,1-3.62,2.32,1,1,0,0,1-1.15,0,22.83,22.83,0,0,0-6.09-3s-4.3-1.21-6.14,1.07c0,0-.79.9-.54,3.13,0,0,.06.54-.37.67a3.93,3.93,0,0,0-2.39,4A4.16,4.16,0,0,0,283,137a1,1,0,0,1,1,.46s1.66,2.5,4,2.57a4.44,4.44,0,0,0,3.57-2.07,25.8,25.8,0,0,0,3.22-6.59,1.66,1.66,0,0,1,.71-1s1.63-.86,2.75-1.61c0,0,.6-.42.87.71v13.13a22.27,22.27,0,0,1-3.62,2.33,1,1,0,0,1-1.15,0,22.83,22.83,0,0,0-6.09-3s-4.3-1.21-6.14,1.07a4.2,4.2,0,0,0-.54,3.13s.06.54-.37.67a3.93,3.93,0,0,0-2.39,4,4.16,4.16,0,0,0,4.14,2.83,1,1,0,0,1,1,.46s1.66,2.5,4,2.57a4.44,4.44,0,0,0,3.57-2.07A25.8,25.8,0,0,0,294.8,148a1.63,1.63,0,0,1,.71-1s1.63-.87,2.75-1.62c0,0,.6-.42.87.71v12.85a21,21,0,0,1-3.62,2.33,1,1,0,0,1-1.15,0,22.63,22.63,0,0,0-6.09-3s-4.3-1.22-6.14,1.06a4.2,4.2,0,0,0-.54,3.13s.06.54-.37.68a3.93,3.93,0,0,0-2.39,4A4.14,4.14,0,0,0,283,170a1,1,0,0,1,1,.47s1.66,2.5,4,2.57a4.44,4.44,0,0,0,3.57-2.08,25.8,25.8,0,0,0,3.22-6.59,1.66,1.66,0,0,1,.71-1s1.63-.87,2.75-1.61c0,0,.6-.43.87.71v13a21,21,0,0,1-3.62,2.33,1,1,0,0,1-1.15,0,25.47,25.47,0,0,0-6.35-3.13s-4-1.1-5.88,1.17a4.2,4.2,0,0,0-.54,3.13s.06.54-.37.68a3.93,3.93,0,0,0-2.39,4,4.14,4.14,0,0,0,4.14,2.82,1,1,0,0,1,1,.47s1.66,2.5,4,2.57a4.14,4.14,0,0,0,3.36-1.87A20.71,20.71,0,0,0,294.8,181a1.66,1.66,0,0,1,.71-1s1.63-.86,2.75-1.61c0,0,.6-.51.87.59v13.84a8.85,8.85,0,0,1-2.74,1.89,1.23,1.23,0,0,1-1.35-.07,18.9,18.9,0,0,0-6.12-2.73s-3.19-.78-4.58.77a4,4,0,0,0-.58,2.78.87.87,0,0,1-.44,1s-2.76,1.22-2,3.92c0,0,.55,2.38,3.83,2.2,0,0,.48-.22.77.44,0,0,1.63,2.55,4.11,2.24,0,0,1.67-.08,3-2.33a18.73,18.73,0,0,0,2.55-5.44,1.58,1.58,0,0,1,.93-1,10.34,10.34,0,0,1,1.87-1s.58-.37.73,1v9.73a.83.83,0,0,1-.67.86,18.44,18.44,0,0,0-5.42,1.92s-3.62,1.71-3.51,5.24c0,0-.09,3.86,5.21,5.82a1.14,1.14,0,0,1,.86,1,6.51,6.51,0,0,0,1.25,3,4,4,0,0,0,6.3,0,6.51,6.51,0,0,0,1.25-3,1.14,1.14,0,0,1,.86-1c5.3-2,5.21-5.82,5.21-5.82.11-3.53-3.51-5.24-3.51-5.24a18.44,18.44,0,0,0-5.42-1.92.84.84,0,0,1-.68-.86v-9.73c.16-1.4.74-1,.74-1a10.34,10.34,0,0,1,1.87,1,1.58,1.58,0,0,1,.93,1A18.73,18.73,0,0,0,307,203c1.36,2.25,3,2.33,3,2.33,2.48.31,4.11-2.24,4.11-2.24.29-.66.77-.44.77-.44,3.28.18,3.83-2.2,3.83-2.2.75-2.7-2-3.92-2-3.92a.87.87,0,0,1-.44-1,4,4,0,0,0-.59-2.78c-1.38-1.55-4.57-.77-4.57-.77a18.9,18.9,0,0,0-6.12,2.73,1.22,1.22,0,0,1-1.35.07,8.9,8.9,0,0,1-2.75-1.89V179c.28-1.1.88-.59.88-.59,1.12.75,2.75,1.61,2.75,1.61a1.62,1.62,0,0,1,.7,1,20.84,20.84,0,0,0,3.44,6.66,4.13,4.13,0,0,0,3.36,1.87c2.33-.07,4-2.57,4-2.57a1,1,0,0,1,1-.47,4.12,4.12,0,0,0,4.13-2.82,3.91,3.91,0,0,0-2.38-4c-.43-.14-.37-.68-.37-.68a4.2,4.2,0,0,0-.54-3.13c-1.85-2.27-5.88-1.17-5.88-1.17a25.47,25.47,0,0,0-6.35,3.13,1,1,0,0,1-1.15,0,21.15,21.15,0,0,1-3.63-2.33v-13c.28-1.14.88-.71.88-.71,1.12.74,2.75,1.61,2.75,1.61a1.62,1.62,0,0,1,.7,1,26,26,0,0,0,3.23,6.59A4.44,4.44,0,0,0,312,173c2.33-.07,4-2.57,4-2.57a1,1,0,0,1,1-.47,4.12,4.12,0,0,0,4.13-2.82,3.91,3.91,0,0,0-2.38-4c-.43-.14-.37-.68-.37-.68a4.2,4.2,0,0,0-.54-3.13c-1.85-2.28-6.14-1.06-6.14-1.06a22.63,22.63,0,0,0-6.09,3,1,1,0,0,1-1.15,0,21.78,21.78,0,0,1-3.63-2.33v-1.53h0V146.09c.28-1.13.88-.71.88-.71,1.12.75,2.75,1.62,2.75,1.62a1.59,1.59,0,0,1,.7,1,26,26,0,0,0,3.23,6.59,4.44,4.44,0,0,0,3.57,2.07c2.33-.07,4-2.57,4-2.57a1,1,0,0,1,1-.46,4.14,4.14,0,0,0,4.13-2.83,3.91,3.91,0,0,0-2.38-4c-.43-.13-.37-.67-.37-.67a4.2,4.2,0,0,0-.54-3.13c-1.85-2.28-6.14-1.07-6.14-1.07a22.83,22.83,0,0,0-6.09,3,1,1,0,0,1-1.15,0,22.44,22.44,0,0,1-3.63-2.33V129.44c.28-1.13.88-.71.88-.71,1.12.75,2.75,1.61,2.75,1.61a1.62,1.62,0,0,1,.7,1,26,26,0,0,0,3.23,6.59A4.44,4.44,0,0,0,312,140c2.33-.07,4-2.57,4-2.57a1,1,0,0,1,1-.46,4.14,4.14,0,0,0,4.13-2.83,3.91,3.91,0,0,0-2.38-4c-.43-.13-.37-.67-.37-.67.25-2.23-.54-3.13-.54-3.13-1.85-2.28-6.14-1.07-6.14-1.07a22.83,22.83,0,0,0-6.09,3,1,1,0,0,1-1.15,0,21.85,21.85,0,0,1-3.63-2.32v-5.71h0v-8.72A151.65,151.65,0,0,1,360.41,124v14.91a21.85,21.85,0,0,1-3.63,2.32,1,1,0,0,1-1.15,0,22.51,22.51,0,0,0-6.09-3s-4.29-1.21-6.14,1.06a4.2,4.2,0,0,0-.54,3.13s.06.54-.37.68a3.91,3.91,0,0,0-2.38,4,4.12,4.12,0,0,0,4.13,2.82,1,1,0,0,1,1.05.47s1.66,2.5,4,2.57a4.44,4.44,0,0,0,3.57-2.08,25.82,25.82,0,0,0,3.23-6.58,1.62,1.62,0,0,1,.7-1s1.63-.86,2.75-1.61c0,0,.6-.43.88.71v13.47a22.44,22.44,0,0,1-3.63,2.33,1,1,0,0,1-1.15,0,22.63,22.63,0,0,0-6.09-3s-4.29-1.22-6.14,1.06a4.2,4.2,0,0,0-.54,3.13s.06.54-.37.67a3.91,3.91,0,0,0-2.38,4,4.14,4.14,0,0,0,4.13,2.83,1,1,0,0,1,1.05.47s1.66,2.49,4,2.56a4.44,4.44,0,0,0,3.57-2.07,26,26,0,0,0,3.23-6.59,1.59,1.59,0,0,1,.7-1s1.63-.87,2.75-1.62c0,0,.6-.42.88.71v13.13a22.44,22.44,0,0,1-3.63,2.33,1,1,0,0,1-1.15,0,22.63,22.63,0,0,0-6.09-3s-4.29-1.22-6.14,1.06a4.2,4.2,0,0,0-.54,3.13s.06.54-.37.67a3.91,3.91,0,0,0-2.38,4,4.13,4.13,0,0,0,4.13,2.83,1,1,0,0,1,1.05.47s1.66,2.49,4,2.57a4.44,4.44,0,0,0,3.57-2.08,26,26,0,0,0,3.23-6.59,1.62,1.62,0,0,1,.7-1s1.63-.87,2.75-1.61c0,0,.6-.43.88.7v12.85a21.15,21.15,0,0,1-3.63,2.33,1,1,0,0,1-1.15,0,22.63,22.63,0,0,0-6.09-3s-4.29-1.21-6.14,1.06a4.2,4.2,0,0,0-.54,3.13s.06.54-.37.68a3.91,3.91,0,0,0-2.38,4,4.12,4.12,0,0,0,4.13,2.82,1,1,0,0,1,1.05.47s1.66,2.5,4,2.57a4.44,4.44,0,0,0,3.57-2.08,25.78,25.78,0,0,0,3.23-6.59,1.62,1.62,0,0,1,.7-1s1.63-.86,2.75-1.61c0,0,.6-.43.88.71v13a21.85,21.85,0,0,1-3.63,2.32,1,1,0,0,1-1.15,0,25.23,25.23,0,0,0-6.35-3.12s-4-1.11-5.88,1.16a4.2,4.2,0,0,0-.54,3.13s.06.54-.37.68a3.91,3.91,0,0,0-2.38,4,4.12,4.12,0,0,0,4.13,2.82,1,1,0,0,1,1.05.47s1.66,2.5,4,2.57a4.13,4.13,0,0,0,3.36-1.87,20.85,20.85,0,0,0,3.44-6.65,1.62,1.62,0,0,1,.7-1s1.63-.86,2.75-1.61c0,0,.6-.51.88.59v13.84a8.9,8.9,0,0,1-2.75,1.89,1.23,1.23,0,0,1-1.35-.07,18.9,18.9,0,0,0-6.12-2.73s-3.19-.78-4.57.77a4,4,0,0,0-.59,2.78.86.86,0,0,1-.44,1s-2.76,1.22-2,3.92c0,0,.55,2.38,3.83,2.2,0,0,.48-.21.77.44,0,0,1.63,2.55,4.11,2.24,0,0,1.68-.07,3-2.33a18.93,18.93,0,0,0,2.54-5.44,1.58,1.58,0,0,1,.93-1,10.34,10.34,0,0,1,1.87-1s.58-.38.74,1v9.73a.84.84,0,0,1-.68.86,18.29,18.29,0,0,0-5.42,1.93s-3.62,1.7-3.51,5.23c0,0-.09,3.87,5.21,5.83a1.1,1.1,0,0,1,.86,1,6.51,6.51,0,0,0,1.25,3,4,4,0,0,0,6.31,0,6.44,6.44,0,0,0,1.24-3,1.12,1.12,0,0,1,.86-1c5.3-2,5.22-5.83,5.22-5.83.1-3.53-3.51-5.23-3.51-5.23a18.4,18.4,0,0,0-5.43-1.93.83.83,0,0,1-.67-.86v-9.73c.15-1.4.73-1,.73-1a10,10,0,0,1,1.87,1,1.58,1.58,0,0,1,.93,1,18.73,18.73,0,0,0,2.55,5.44c1.36,2.26,3,2.33,3,2.33,2.48.31,4.11-2.24,4.11-2.24.29-.65.77-.44.77-.44,3.28.18,3.83-2.2,3.83-2.2.75-2.7-2-3.92-2-3.92a.88.88,0,0,1-.44-1,4,4,0,0,0-.58-2.78c-1.39-1.55-4.58-.77-4.58-.77a18.9,18.9,0,0,0-6.12,2.73,1.23,1.23,0,0,1-1.35.07,8.67,8.67,0,0,1-2.74-1.89V209c.27-1.1.87-.59.87-.59,1.12.75,2.76,1.61,2.76,1.61a1.68,1.68,0,0,1,.7,1,20.72,20.72,0,0,0,3.43,6.65,4.14,4.14,0,0,0,3.36,1.87c2.33-.07,4-2.57,4-2.57a1,1,0,0,1,1.05-.47,4.14,4.14,0,0,0,4.14-2.82,3.93,3.93,0,0,0-2.39-4c-.43-.14-.37-.68-.37-.68a4.2,4.2,0,0,0-.54-3.13c-1.84-2.27-5.88-1.16-5.88-1.16a25.23,25.23,0,0,0-6.35,3.12,1,1,0,0,1-1.14,0,21.42,21.42,0,0,1-3.63-2.32v-13c.27-1.14.87-.71.87-.71,1.12.75,2.76,1.61,2.76,1.61a1.67,1.67,0,0,1,.7,1,25.58,25.58,0,0,0,3.22,6.59,4.44,4.44,0,0,0,3.57,2.08c2.33-.07,4-2.57,4-2.57a1,1,0,0,1,1.05-.47,4.14,4.14,0,0,0,4.14-2.82,3.93,3.93,0,0,0-2.39-4c-.43-.14-.37-.68-.37-.68a4.2,4.2,0,0,0-.54-3.13c-1.84-2.27-6.14-1.06-6.14-1.06a22.63,22.63,0,0,0-6.09,3,1,1,0,0,1-1.14,0,20.75,20.75,0,0,1-3.63-2.33v-1.53h0V176c.27-1.13.87-.7.87-.7,1.12.74,2.76,1.61,2.76,1.61a1.67,1.67,0,0,1,.7,1,25.8,25.8,0,0,0,3.22,6.59,4.44,4.44,0,0,0,3.57,2.08c2.33-.08,4-2.57,4-2.57a1,1,0,0,1,1.05-.47,4.15,4.15,0,0,0,4.14-2.83,3.93,3.93,0,0,0-2.39-4c-.43-.13-.37-.67-.37-.67a4.2,4.2,0,0,0-.54-3.13c-1.84-2.28-6.14-1.06-6.14-1.06a22.63,22.63,0,0,0-6.09,3,1,1,0,0,1-1.14,0,22,22,0,0,1-3.63-2.33V159.39c.27-1.13.87-.71.87-.71,1.12.75,2.76,1.62,2.76,1.62a1.64,1.64,0,0,1,.7,1,25.8,25.8,0,0,0,3.22,6.59,4.44,4.44,0,0,0,3.57,2.07c2.33-.07,4-2.56,4-2.56a1,1,0,0,1,1.05-.47,4.16,4.16,0,0,0,4.14-2.83,3.93,3.93,0,0,0-2.39-4c-.43-.13-.37-.67-.37-.67a4.2,4.2,0,0,0-.54-3.13C377.3,154,373,155.2,373,155.2a22.63,22.63,0,0,0-6.09,3,1,1,0,0,1-1.14,0,22,22,0,0,1-3.63-2.33V142.4c.27-1.14.87-.71.87-.71,1.12.75,2.76,1.61,2.76,1.61a1.68,1.68,0,0,1,.7,1,25.62,25.62,0,0,0,3.22,6.58,4.44,4.44,0,0,0,3.57,2.08c2.33-.07,4-2.57,4-2.57a1,1,0,0,1,1.05-.47,4.14,4.14,0,0,0,4.14-2.82,3.93,3.93,0,0,0-2.39-4c-.43-.14-.37-.68-.37-.68a4.2,4.2,0,0,0-.54-3.13C377.3,137,373,138.2,373,138.2a22.51,22.51,0,0,0-6.09,3,1,1,0,0,1-1.14,0,21.42,21.42,0,0,1-3.63-2.32V124.73a152.39,152.39,0,0,1,65.34,222.9l0,0c-29.83-32.23-64.81-64.41-94.7-96.59a25.89,25.89,0,0,0-8-6,21.19,21.19,0,0,0-9.08-2H284a21.19,21.19,0,0,0-9.08,2,26,26,0,0,0-8,6c-29.85,32.26-64.67,64.35-94.47,96.55a152.38,152.38,0,0,1,65.38-222.83ZM223,304.43l.84-.83c15.95-15.88,32.45-32.29,47.45-48.5a20.31,20.31,0,0,1,6.15-4.65A15.21,15.21,0,0,1,284,249h31.66a15.13,15.13,0,0,1,6.55,1.42,18,18,0,0,1,3.88,2.52l.42.4,13.33,14.55,7.38,8.06,19.15,18.09q4.5,4.49,9,8.92l9.9,9.85a2,2,0,0,1,.2,2.72,1,1,0,0,1-1.45.19L367.49,303l-32.06-24.68a.57.57,0,0,0-.87.23,1.12,1.12,0,0,0,.06,1.17l26.17,34.82a1.65,1.65,0,0,1,.11,1.7.85.85,0,0,1-1.25.41l-40-26.63a.56.56,0,0,0-.8.21,1.14,1.14,0,0,0-.05,1.09l9.68,19.31a1.65,1.65,0,0,1-.11,1.65.82.82,0,0,1-1.24.2L302,291.56a3.09,3.09,0,0,0-4.22,0l-25.1,20.94a.81.81,0,0,1-1.23-.2,1.65,1.65,0,0,1-.12-1.65L281,291.34a1.14,1.14,0,0,0-.05-1.09.56.56,0,0,0-.8-.21l-40,26.63a.85.85,0,0,1-1.25-.41,1.65,1.65,0,0,1,.11-1.7l26.17-34.82a1.1,1.1,0,0,0,.06-1.17.56.56,0,0,0-.86-.23l-1.65,1.26-.2.16-25.66,19.75-21.1,16.25a1,1,0,0,1-1.5-.24,2,2,0,0,1,.26-2.59q3.36-3.36,6.71-6.68c.63-.6,1.26-1.18,1.88-1.76Z"/><path class="cls-2" d="M130.37,461.27c-.41,0-.51-.06-.51-.67s0-.66.56-.77a7.63,7.63,0,0,0,3.94-2.09,11.77,11.77,0,0,0,2.14-3.53c.16-.31.26-.46.82-.46s.66.15.66.51c0,1.43-.15,3.48-.15,5,2,0,5,0,7.06-.1.25,0,.3.05.25.31l-.46,1.43a.56.56,0,0,1-.51.36c-1.84-.11-4.55-.16-6.44-.16l-.1,12.73c0,2.81.3,4.19,1,5.16a3.23,3.23,0,0,0,2.71,1.33,4.82,4.82,0,0,0,3.22-1.38.56.56,0,0,1,.82.16c.3.4.41.56.1.86a7.57,7.57,0,0,1-5.57,2.71,6.47,6.47,0,0,1-5-1.73c-1-1.18-1.59-2.71-1.59-5.58,0-2.35.11-4.65.11-7.05l.1-7.11Z"/><path class="cls-2" d="M181.23,451.81a16.2,16.2,0,0,0-.3-4.24,1.54,1.54,0,0,0-1.74-1l-1.33.11c-.51.05-.67.05-.67-.57s.11-.66.57-.76a61.6,61.6,0,0,0,7.31-2.15c.25,0,.56.21.56.41-.16,3.63-.26,7.36-.26,12.17v18.81c0,3-.05,4.39.36,5.21s1.13.77,1.89.82l.92.05c.36,0,.46.1.46.56s-.1.61-.46.67c-1.79.1-5,.46-6.95.81-.31,0-.46-.15-.46-.51.05-1.33.1-2.25.1-3.42a8.18,8.18,0,0,1-6.74,3.93c-6.85,0-10.74-5-10.74-12,0-7.16,4.35-12.37,11.25-12.37a8.65,8.65,0,0,1,6.23,2.61Zm0,15.39c0-1.74.1-2.71-1-4.35a5.81,5.81,0,0,0-4.91-2.91c-4.29,0-6.85,4.39-6.85,10.58s2.92,9.76,6.8,9.76a5.72,5.72,0,0,0,4.91-2.61c1.07-1.27,1-2.3,1-4Z"/><path class="cls-2" d="M207.36,462c-.52.05-.67.1-.72-.66,0-.46.1-.51.61-.67a69.25,69.25,0,0,0,7.11-2.14.51.51,0,0,1,.56.46c0,1.38-.1,2.86-.1,4.19,1.84-3.07,4.45-4.81,7.41-4.81a6.57,6.57,0,0,1,6.7,5.06c2-3.22,4.55-5.06,8-5.06,1.59,0,7,.72,7,7.16,0,1.84-.05,4.34-.05,5.62v3.32c0,3,0,4.55.31,5.27s1.69.82,2.91,1c.31.05.41.1.41.56s0,.57-.41.57c-1.53-.06-3.52-.16-5.11-.16s-3.58.1-5.42.16c-.35,0-.46-.11-.46-.57s.11-.56.46-.56c1.33-.15,2.25-.15,2.71-1s.41-2.35.41-5.27v-6.74a9.31,9.31,0,0,0-.56-4.19,3.88,3.88,0,0,0-3.94-2.61,5.55,5.55,0,0,0-4.8,2.91,5.66,5.66,0,0,0-1.13,3.94v6.69c0,3,0,4.5.36,5.27s1.59.82,3,1c.3.05.36.1.36.56s-.06.57-.41.57c-1.69-.06-3.68-.16-5.11-.16-1.69,0-3.69.1-5.37.16-.41,0-.46-.16-.46-.57s.1-.56.46-.56c1.28-.15,2.3-.15,2.71-1s.41-2.35.41-5.27v-6.74a9.19,9.19,0,0,0-.57-4.19,4.07,4.07,0,0,0-4-2.61c-2.25,0-3.63,1.28-4.71,2.91a5.94,5.94,0,0,0-1.07,3.94v6.69c0,3,0,4.5.31,5.27s1.58.82,2.86,1c.31.05.41.15.41.56s-.1.57-.41.57c-1.59-.06-3.58-.16-5.16-.16s-3.53.1-5.22.16c-.36,0-.46-.11-.46-.57s.1-.51.46-.56c1.33-.15,2.25-.15,2.66-1s.41-2.35.41-5.27v-7.3a13.26,13.26,0,0,0-.36-4.2,1.46,1.46,0,0,0-1.79-1.07Z"/><path class="cls-2" d="M270.64,470.47c0,6.49,4.19,9.86,7.57,9.86a7.7,7.7,0,0,0,7-3.58.53.53,0,0,1,.41-.25c.2,0,.87.36.87.76,0,.16-.05.21-.26.52a9.7,9.7,0,0,1-8.89,4.9c-6.7,0-11.25-5.06-11.25-12,0-6.69,4.6-12.32,11.2-12.32,6.44,0,9.3,5.63,9.45,9.05a1.18,1.18,0,0,1-.25.87.89.89,0,0,1-.82.26c-5-.16-10.33-.21-14.82-.11A12.9,12.9,0,0,0,270.64,470.47Zm10.89-4c.41,0,.56-.36.51-.82-.25-2.71-1.63-5.77-4.8-5.77-3,0-5.22,2.7-6.14,6.74A98.1,98.1,0,0,0,281.53,466.48Z"/><path class="cls-2" d="M308.37,451.81a14.7,14.7,0,0,0-.36-4.19,1.58,1.58,0,0,0-1.79-1.08l-1.33.11c-.46.05-.61,0-.66-.62s.1-.61.56-.71a74.9,74.9,0,0,0,7.36-2.15c.26,0,.57.1.57.36-.11,3.63-.21,7.46-.21,12.37v18.5c0,3.07-.05,4.55.36,5.32s1.43.82,2.91,1c.36.05.41.2.41.61s-.1.57-.41.57c-1.68-.11-3.58-.16-5.06-.16-1.69,0-3.73.05-5.47.16-.36,0-.46-.11-.46-.57s.1-.56.46-.61c1.38-.15,2.3-.15,2.66-1s.46-2.35.46-5.32Z"/><path class="cls-2" d="M357,470.47c0,6.69-4.49,12.21-11.24,12.21-6.59,0-11.25-5.16-11.25-12,0-6.64,4.66-12.27,11.25-12.27S357,463.51,357,470.47Zm-17.68.1c0,6.23,2,10.63,6.44,10.63s6.49-4.75,6.49-10.63c0-6.29-2-10.68-6.49-10.68C341.45,459.89,339.35,464.59,339.35,470.57Z"/><path class="cls-2" d="M394.36,451.81a15.69,15.69,0,0,0-.31-4.24,1.54,1.54,0,0,0-1.74-1l-1.33.11c-.51.05-.66.05-.66-.57s.1-.66.56-.76a61.6,61.6,0,0,0,7.31-2.15c.25,0,.56.21.56.41-.15,3.63-.25,7.36-.25,12.17v18.81c0,3-.06,4.39.35,5.21s1.13.77,1.89.82l.92.05c.36,0,.46.1.46.56s-.1.61-.46.67c-1.78.1-5,.46-7,.81-.3,0-.46-.15-.46-.51.05-1.33.11-2.25.11-3.42a8.19,8.19,0,0,1-6.75,3.93c-6.85,0-10.74-5-10.74-12,0-7.16,4.35-12.37,11.25-12.37a8.67,8.67,0,0,1,6.24,2.61Zm0,15.39c0-1.74.1-2.71-1-4.35a5.79,5.79,0,0,0-4.9-2.91c-4.3,0-6.85,4.39-6.85,10.58s2.91,9.76,6.8,9.76a5.7,5.7,0,0,0,4.9-2.61c1.08-1.27,1-2.3,1-4Z"/><path class="cls-2" d="M423.75,467.25a15.13,15.13,0,0,0-.36-4.25,1.53,1.53,0,0,0-1.84-1l-1.28.1c-.51.05-.66.05-.71-.66,0-.51.1-.56.61-.67,1.79-.46,5.11-1.43,7.21-2.19.31,0,.61.15.61.46-.15,3.68-.2,6.49-.2,8.89v6.49c0,3,0,4.55.36,5.37s1.53.72,3,.87c.31.05.41.15.41.56,0,.56-.1.67-.41.67-1.64-.06-3.63-.16-5.16-.16s-3.79.1-5.37.16c-.36,0-.46-.11-.46-.67,0-.41.1-.56.46-.56,1.28-.15,2.3-.21,2.76-.87.46-.87.41-2.45.41-5.37Zm4.75-19.74a3.07,3.07,0,1,1-6.13,0,3.07,3.07,0,0,1,6.13,0Z"/><path class="cls-2" d="M467.15,459.53c1,.41,1.94,1,1.94,2.25,0,1.73-.61,3.17-1.94,3.17s-2-1.74-2.81-2.87a3.72,3.72,0,0,0-3.12-2.09c-4,0-6.29,4.44-6.29,10.48,0,6.44,3.94,9.76,7.21,9.76a7.22,7.22,0,0,0,6.7-3.48c.25-.35.51-.3.92-.05s.46.46.3.77a9.79,9.79,0,0,1-8.89,5.21c-6.49,0-11-5-11-12s4.7-12.32,11.14-12.32A14,14,0,0,1,467.15,459.53Z"/></svg>